<svg xmlns="http://www.w3.org/2000/svg" width="2000" height="686" xmlns:v="https://vecta.io/nano"><g transform="translate(-1.212 -1.578)"><svg viewBox="0 0 396 136" preserveAspectRatio="xMidYMid meet" height="686" width="2000"><g transform="translate(.24 .313)"><svg height="135.374" width="395.52"><svg height="135.374" width="395.52"><g transform="translate(0 91.924)"><svg height="43.451" width="395.52"><svg height="43.451" width="395.52"><svg height="43.451" width="395.52"><svg width="395.52" viewBox="2.54 -34.91 322.22 35.4" height="43.451"><path d="M19.53-3.34h0q7.23 0 10.87-7.16h0l3.8 1.91q-2.12 4.44-5.97 6.76Q24.39.49 19.31.49h0q-5.22 0-8.98-2.17-3.76-2.18-5.78-6.19-2.01-4.02-2.01-9.49h0q0-5.49 2-9.42 2-3.93 5.76-6.03 3.76-2.1 8.99-2.1h0q5.49 0 9.18 2.15 3.68 2.14 5.42 6.37h0l-4.42 1.46q-1.2-3-3.85-4.59-2.65-1.58-6.28-1.58h0q-5.72 0-8.89 3.67-3.17 3.68-3.17 10.07h0q0 4.2 1.5 7.36 1.5 3.16 4.24 4.91 2.75 1.75 6.51 1.75zM40.72-34.4h4.66V0h-4.66v-34.4zm17.53 11.55h0V0H54.1v-34.4h5.42l18.6 29.49q-.29-4.81-.29-6.93h0V-34.4h4.2V0h-5.62L58-29.3q.05 1.61.15 3.23.1 1.61.1 3.22zM94.87-3.81h22.43V0H90.2v-34.4h26.1v3.81H94.87v11.03h19.97v3.76H94.87v11.99zm52.8-30.59h4.91L138.54 0h-4.83l-14.04-34.4h4.9l9.53 24.22q.58 1.49 1.06 3.03.47 1.53.99 3.05h0q.49-1.52 1.02-3.18.54-1.66 1.03-2.9h0l9.47-24.22zm41.62 17.04h0q0 5.52-2.08 9.52-2.09 4.01-5.92 6.17Q177.45.49 172.2.49h0q-5.27 0-9.09-2.15-3.82-2.15-5.88-6.15-2.07-4.01-2.07-9.55h0q0-5.52 2.04-9.43 2.04-3.92 5.86-6.02 3.82-2.1 9.19-2.1h0q5.28 0 9.1 2.07 3.82 2.08 5.88 6 2.06 3.92 2.06 9.48zm-4.76 0h0q0-6.42-3.21-10.08-3.21-3.66-9.07-3.66h0q-5.91 0-9.13 3.61-3.22 3.61-3.22 10.13h0q0 4.3 1.46 7.46 1.47 3.16 4.23 4.88 2.76 1.72 6.61 1.72h0q5.96 0 9.15-3.67 3.18-3.67 3.18-10.39zm39.41-17.04l-13.29 20.14V0h-4.63v-14.26L192.78-34.4h5.13l10.47 16.38 10.43-16.38h5.13zm21.94 24.34h-15.67L226.25 0h-4.83l14.04-34.4h5.29L254.57 0h-4.76l-3.93-10.06zm-7.84-20.82h0q-.41 1.36-.98 3.04-.58 1.67-1.07 2.94h0l-4.37 11.2h12.87l-4.42-11.35q-.34-.85-.9-2.42-.56-1.56-1.13-3.41zM274.52-3.3h0q3.37 0 6.28-1.02 2.92-1.03 4.73-2.78h0v-6.21h-10.28v-3.9h14.57v11.86q-2.73 2.79-6.7 4.31-3.97 1.53-8.6 1.53h0q-5.37 0-9.26-2.17-3.88-2.18-5.98-6.19-2.1-4.02-2.1-9.49h0q0-8.37 4.49-12.96 4.5-4.59 12.63-4.59h0q5.71 0 9.27 1.93 3.57 1.93 5.5 6.17h0l-4.45 1.32q-1.46-2.93-4.04-4.27-2.57-1.34-6.41-1.34h0q-5.95 0-9.1 3.6-3.15 3.6-3.15 10.14h0q0 6.52 3.34 10.29 3.35 3.77 9.26 3.77zm27.8-.51h22.44V0h-27.1v-34.4h26.1v3.81h-21.44v11.03h19.97v3.76h-19.97v11.99z"/></svg></svg></svg></svg></g><g transform="translate(154.01)"><svg height="81.666" width="87.5"><svg viewBox="5 6 30 28" height="81.666" width="87.5"><path fill-rule="evenodd" d="M34 10.9c.6-.2 1-.8 1-1.4A1.54 1.54 0 0 0 33.5 8 1.54 1.54 0 0 0 32 9.5a1.41 1.41 0 0 0 1 1.4v5.3c-.1 0-.2-.1-.3-.1C31.3 10.3 26.2 6 20 6S8.7 10.3 7.3 16.1C6 16.4 5 17.6 5 19s1 2.6 2.3 2.9a13.75 13.75 0 0 0 2.7 5.4V30s2 4 10 4 10-4 10-4v-2.7c1.3-1.5 2.2-3.4 2.7-5.4C34 21.6 35 20.4 35 19c0-.9-.4-1.7-1-2.2zm-2.9 11c-.5 2-1.5 3.7-2.9 5.1a11.25 11.25 0 0 1-8.2 3.5c-3.2 0-6.2-1.3-8.2-3.5-1.4-1.4-2.4-3.2-2.9-5.1-.3-1-.4-1.9-.4-2.9s.1-1.9.4-2.9c1.3-5 5.8-8.6 11.1-8.6 5.4 0 9.9 3.7 11.1 8.6.2.9.4 1.9.4 2.9s-.1 1.9-.4 2.9M20 10a8.96 8.96 0 0 0-9 9c0 .9.1 1.7.4 2.5a15.48 15.48 0 0 1 10.1-3.7c-4.5 1.8-7.3 4.5-8.8 6.4C14.3 26.5 17 28 20 28a8.96 8.96 0 0 0 9-9 8.96 8.96 0 0 0-9-9"/></svg></svg></g></svg></svg></g></svg></g></svg>