<svg xmlns="http://www.w3.org/2000/svg" version="1.1" xmlns:xlink="http://www.w3.org/1999/xlink" xmlns:svgjs="http://svgjs.dev/svgjs" width="170" height="72" viewBox="0 0 2000 686"><g transform="matrix(1,0,0,1,-1.2121212121212466,-1.577788003262242)"><svg viewBox="0 0 396 136" data-background-color="#ffffff" preserveAspectRatio="xMidYMid meet" height="686" width="2000" xmlns="http://www.w3.org/2000/svg" xmlns:xlink="http://www.w3.org/1999/xlink"><g id="tight-bounds" transform="matrix(1,0,0,1,0.2400000000000091,0.31279762163799774)"><svg viewBox="0 0 395.52 135.374404756724" height="135.374404756724" width="395.52"><g><svg viewBox="0 0 395.52 135.374404756724" height="135.374404756724" width="395.52"><g transform="matrix(1,0,0,1,0,91.92384032002425)"><svg viewBox="0 0 395.52 43.45056443669975" height="43.45056443669975" width="395.52"><g id="textblocktransform"><svg viewBox="0 0 395.52 43.45056443669975" height="43.45056443669975" width="395.52" id="textblock"><g><svg viewBox="0 0 395.52 43.45056443669975" height="43.45056443669975" width="395.52"><g transform="matrix(1,0,0,1,0,0)"><svg width="395.52" viewBox="2.54 -34.91 322.21999999999997 35.4" height="43.45056443669975" data-palette-color="#000000"><path d="M19.53-3.34L19.53-3.34Q26.76-3.34 30.4-10.5L30.4-10.5 34.2-8.59Q32.08-4.15 28.23-1.83 24.39 0.49 19.31 0.49L19.31 0.49Q14.09 0.49 10.33-1.68 6.57-3.86 4.55-7.87 2.54-11.89 2.54-17.36L2.54-17.36Q2.54-22.85 4.54-26.78 6.54-30.71 10.3-32.81 14.06-34.91 19.29-34.91L19.29-34.91Q24.78-34.91 28.47-32.76 32.15-30.62 33.89-26.39L33.89-26.39 29.47-24.93Q28.27-27.93 25.62-29.52 22.97-31.1 19.34-31.1L19.34-31.1Q13.62-31.1 10.45-27.43 7.28-23.75 7.28-17.36L7.28-17.36Q7.28-13.16 8.78-10 10.28-6.84 13.02-5.09 15.77-3.34 19.53-3.34ZM40.72-34.4L45.38-34.4 45.38 0 40.72 0 40.72-34.4ZM58.25-22.85L58.25-22.85 58.25 0 54.1 0 54.1-34.4 59.52-34.4 78.12-4.91Q77.83-9.72 77.83-11.84L77.83-11.84 77.83-34.4 82.03-34.4 82.03 0 76.41 0 58-29.3Q58.05-27.69 58.15-26.07 58.25-24.46 58.25-22.85ZM94.87-3.81L117.3-3.81 117.3 0 90.2 0 90.2-34.4 116.3-34.4 116.3-30.59 94.87-30.59 94.87-19.56 114.84-19.56 114.84-15.8 94.87-15.8 94.87-3.81ZM147.67-34.4L152.58-34.4 138.54 0 133.71 0 119.67-34.4 124.57-34.4 134.1-10.18Q134.68-8.69 135.16-7.15 135.63-5.62 136.15-4.1L136.15-4.1Q136.64-5.62 137.17-7.28 137.71-8.94 138.2-10.18L138.2-10.18 147.67-34.4ZM189.29-17.36L189.29-17.36Q189.29-11.84 187.21-7.84 185.12-3.83 181.29-1.67 177.45 0.49 172.2 0.49L172.2 0.49Q166.93 0.49 163.11-1.66 159.29-3.81 157.23-7.81 155.16-11.82 155.16-17.36L155.16-17.36Q155.16-22.88 157.2-26.79 159.24-30.71 163.06-32.81 166.88-34.91 172.25-34.91L172.25-34.91Q177.53-34.91 181.35-32.84 185.17-30.76 187.23-26.84 189.29-22.92 189.29-17.36ZM184.53-17.36L184.53-17.36Q184.53-23.78 181.32-27.44 178.11-31.1 172.25-31.1L172.25-31.1Q166.34-31.1 163.12-27.49 159.9-23.88 159.9-17.36L159.9-17.36Q159.9-13.06 161.36-9.9 162.83-6.74 165.59-5.02 168.35-3.3 172.2-3.3L172.2-3.3Q178.16-3.3 181.35-6.97 184.53-10.64 184.53-17.36ZM223.94-34.4L210.65-14.26 210.65 0 206.02 0 206.02-14.26 192.78-34.4 197.91-34.4 208.38-18.02 218.81-34.4 223.94-34.4ZM245.88-10.06L230.21-10.06 226.25 0 221.42 0 235.46-34.4 240.75-34.4 254.57 0 249.81 0 245.88-10.06ZM238.04-30.88L238.04-30.88Q237.63-29.52 237.06-27.84 236.48-26.17 235.99-24.9L235.99-24.9 231.62-13.7 244.49-13.7 240.07-25.05Q239.73-25.9 239.17-27.47 238.61-29.03 238.04-30.88ZM274.52-3.3L274.52-3.3Q277.89-3.3 280.8-4.32 283.72-5.35 285.53-7.1L285.53-7.1 285.53-13.31 275.25-13.31 275.25-17.21 289.82-17.21 289.82-5.35Q287.09-2.56 283.12-1.04 279.15 0.49 274.52 0.49L274.52 0.49Q269.15 0.49 265.26-1.68 261.38-3.86 259.28-7.87 257.18-11.89 257.18-17.36L257.18-17.36Q257.18-25.73 261.67-30.32 266.17-34.91 274.3-34.91L274.3-34.91Q280.01-34.91 283.57-32.98 287.14-31.05 289.07-26.81L289.07-26.81 284.62-25.49Q283.16-28.42 280.58-29.76 278.01-31.1 274.17-31.1L274.17-31.1Q268.22-31.1 265.07-27.5 261.92-23.9 261.92-17.36L261.92-17.36Q261.92-10.84 265.26-7.07 268.61-3.3 274.52-3.3ZM302.32-3.81L324.76-3.81 324.76 0 297.66 0 297.66-34.4 323.76-34.4 323.76-30.59 302.32-30.59 302.32-19.56 322.29-19.56 322.29-15.8 302.32-15.8 302.32-3.81Z" opacity="1" transform="matrix(1,0,0,1,0,0)" fill="#000000" class="wordmark-text-0" data-fill-palette-color="primary" id="text-0"></path></svg></g></svg></g></svg></g></svg></g><g transform="matrix(1,0,0,1,154.0102473910361,0)"><svg viewBox="0 0 87.49950521792778 81.66620487006593" height="81.66620487006593" width="87.49950521792778"><g><svg xmlns="http://www.w3.org/2000/svg" xmlns:xlink="http://www.w3.org/1999/xlink" version="1.1" x="0" y="0" viewBox="5 6 30 28" enable-background="new 0 0 40 40" xml:space="preserve" height="81.66620487006593" width="87.49950521792778" class="icon-icon-0" data-fill-palette-color="accent" id="icon-0"><path fill-rule="evenodd" clip-rule="evenodd" d="M34 10.9C34.6 10.7 35 10.1 35 9.5 35 8.7 34.3 8 33.5 8S32 8.7 32 9.5C32 10.2 32.4 10.7 33 10.9V16.2C32.9 16.2 32.8 16.1 32.7 16.1 31.3 10.3 26.2 6 20 6S8.7 10.3 7.3 16.1C6 16.4 5 17.6 5 19S6 21.6 7.3 21.9C7.8 23.9 8.7 25.7 10 27.3V30S12 34 20 34 30 30 30 30V27.3C31.3 25.8 32.2 23.9 32.7 21.9 34 21.6 35 20.4 35 19 35 18.1 34.6 17.3 34 16.8zM31.1 21.9C30.6 23.9 29.6 25.6 28.2 27 26.1 29.2 23.2 30.5 20 30.5S13.8 29.2 11.8 27C10.4 25.6 9.4 23.8 8.9 21.9 8.6 20.9 8.5 20 8.5 19S8.6 17.1 8.9 16.1C10.2 11.1 14.7 7.5 20 7.5 25.4 7.5 29.9 11.2 31.1 16.1 31.3 17 31.5 18 31.5 19S31.4 20.9 31.1 21.9M20 10C15 10 11 14 11 19 11 19.9 11.1 20.7 11.4 21.5 13.4 19.8 16.8 17.8 21.5 17.8 17 19.6 14.2 22.3 12.7 24.2 14.3 26.5 17 28 20 28 25 28 29 24 29 19S25 10 20 10" fill="#000000" data-fill-palette-color="accent"></path></svg></g></svg></g><g></g></svg></g><defs></defs></svg><rect width="395.52" height="135.374404756724" fill="none" stroke="none" visibility="hidden"></rect></g></svg></g></svg>