<?xml version="1.0" encoding="UTF-8"?>
<svg version="1.1" viewBox="0 0 925 912" width="75" height="75" xmlns="http://www.w3.org/2000/svg" transform="rotate(90, 0, 0)">
<path transform="translate(0)" d="m0 0h925v912h-925z" fill="transparent"/>
<path transform="translate(179,18)" d="m0 0 6 2 13 10 16 15 55 55v2h2l7 8 16 17 7 7 7 8 7 7 7 8 16 17v2h2l7 8 12 13 9 10 14 15 7 8 9 10 10 11 7 8 10 11v2h2l7 8 10 11 7 8 10 11v2l5-3 7-8 10-11 7-8 9-10 7-8 12-13 7-8 12-13 18-20 11-12 7-8 5-6h2l2-4 15-16 12-13 4-5h2l2-4 10-10 3-4h2l2-4 6-7h2l2-4 22-22 7-8 43-43h2v-2l8-7 14-11 6-2 1 1-1 8-8 15-15 24-21 31-12 17-14 20-8 11-26 36-14 19-9 12-8 11-9 12-16 22-16 21-9 12-14 19-20 26-12 16-16 21-9 12-10 13-13 17-20 26-7 10h-2l-2 5-10 12-3 5h-2l-2 5-13 15-9 10-7 8-8 10h-2l-2 4-10 11-7 8-13 15-11 12-7 8-10 11-7 8-18 20-7 9h-2l-2 4-13 14-7 8-11 12-7 8-11 12-1 2h-2l-2 4-15 16-9 10-11 12-1 2h-2l-2 4-7 7-7 8-14 15-11 12-16 17-11 12-10 10-7 8-18 18-7 8-20 20-8 7-7 7-8 7-12 9-6 1v-6l8-16 9-15 26-39 13-18 10-15 12-16 20-28 13-18 14-19 9-12 13-18 10-13 12-16 14-19 10-13 21-28 10-13 12-16 14-18 12-16 14-18 12-16 12-15 9-12 5-6-1-4-14-18-10-13-13-17-20-26-32-42-12-16-10-13-51-68-42-57-39-54-10-14-22-32-22-33-13-22-3-7v-6l7 1 13 11 8 7 16 15 35 35 7 8 13 13 7 8 9 9v2h2l7 8 7 7 7 8 15 16 12 13 11 12 7 8 13 14 7 8 14 15 7 8 1 3h2l7 8 18 20 7 8 10 11 7 8 9 10 7 8 8 9v2h2l7 8 9 10 7 8v2h2l9 11 13 14 9 11 4 4 4-2 12-13 9-11 5-6h2l2-4v-4l-9-12-10-13-9-12-16-21-9-12-14-19-10-13-14-19-12-16-13-18-12-16-8-11-12-17-12-16-13-19-12-16-16-24-13-19-14-22-7-12-4-10z"/>
<path transform="translate(902,18)" d="m0 0 3 1-2 9-8 15-12 19-22 33-10 14-13 19-14 19-12 17-11 15-9 12-10 14-12 16-14 19-12 16-14 19-20 26-33 44-16 21-10 13-9 12-30 39-1 2h-2l-2 4-14 19-2 2 1 5 9 12 11 14 12 16 14 18 13 17 16 21 9 12 13 17 33 44 16 21 7 10 16 21 10 14 15 20 13 18 14 19 12 17 13 18 10 14 11 16 13 19 10 15 8 13 10 17 5 11-1 4-6-1-9-7-10-9-12-11-52-52-7-8-7-7-7-8-10-10-7-8-29-31-7-8-15-16-7-8-12-13-7-8-14-15-7-8-10-11-7-8-12-13-9-11-7-7-7-8-18-20-7-8-9-10-9-11-15-16-9-11-11-12-7-8h-2l-9 11-11 12-7 8-5 6 1 5 8 10 9 12 13 17 33 44 16 21 4 6v2h2l10 14 10 13 8 11 14 19 13 18 11 15 10 14 24 34 16 23 14 21 10 16 10 17 4 10-1 3-6-1-13-10-15-14-4-3v-2h-2v-2h-2l-23-23v-2h-2v-2l-3-1-7-8-15-15-7-8-12-12-7-8-7-7-7-8-16-17-9-10-14-15-7-8-14-15v-2h-2l-7-8-10-11-7-8-13-14-7-8-10-11-7-8-10-11v-2h-2l-9-11-8-8-7 6-9 11-7 8h-2l-2 4-12 13-1 2h-2l-2 4-7 7-7 8-10 11-7 8-11 12-7 8-15 16-7 8-12 13-11 12-15 16-7 8-10 10-7 8-10 10-7 8-14 14-5 6h-2l-2 4-28 28h-2v2h-2l-2 4-8 7-10 9-10 7-5 2-1-1v-6l10-19 12-19 16-24 12-17 13-19 13-18 10-14 13-18 9-12 13-18 12-16 14-19 9-12 14-19 10-13 10-14 14-18 21-28 10-13 16-21 10-13 9-12 14-18 9-12 10-13 11-14 20-26 9-11h2l2-4 10-11 7-8 12-14 10-11 7-8 9-10 9-11 15-16 7-8 2-3h2l2-4 11-12 9-11 8-8 9-11 8-8 7-8 27-30 12-13 7-8 14-15 7-8 12-13 14-15 1-2h2l2-4 10-10 7-8 7-7 7-8 10-10 1-2h2l2-4 14-14 7-8 34-34 8-7 4-2v-2l11-9 8-6z"/>
</svg>
