<?xml version="1.0" encoding="UTF-8"?>
<svg version="1.1" viewBox="0 0 2048 768" width="300" height="100" xmlns="http://www.w3.org/2000/svg">
<path transform="translate(0)" d="m0 0h2048v768h-2048z" fill="none"/>
<path transform="translate(862,17)" d="m0 0 110 1 9 7 307 307 13 8 12 3h16l12-3 13-8 12-11 209-209 7-8 10-10h2l1 23-1 85-17 17h-2l-2 4-75 75h-2l-2 4-52 52-5 4-7 8-20 20-9 13-4 11-1 11 2 11 6 12 9 11 15 16 148 148 8 7 10 11 1 2v107l-6-4-7-8-227-227-13-8-13-4h-15l-13 4-12 7-14 12-19 19-1 2h-2v2l-8 7-53 53-3 4h-2v2l-8 7-11 11-1 2h-2v2h-2v2l-8 7-9 9-1 2h-2l-2 4-18 18-8 7-3 4h-2l-2 4-14 14h-2l-2 4-22 22h-2l-2 4-14 14-12 2h-91l-5-1 6-7 10-9 272-272 10-15 5-16v-14l-4-13-6-11-11-12-345-345-8-7-9-6z" fill="#020102"/>
<path transform="translate(805,306)" d="m0 0 37 1 1 1v33h2l10-13 4-5 13-9 13-5 4-1h20l16 4 12 6 10 10 8 14 7-12 10-10 11-7 13-4 5-1h21l15 4 14 8 8 8 8 13 5 16 1 16-1 129-1 2-47 1-11 1-1-1-1-127-3-12-5-7-8-5-3-1h-10l-8 3-7 5-5 10-2 10-1 96-1 26-2 1h-56l-1-2-1-125-2-9-7-10-10-5h-10l-10 4-5 4-5 9-2 11-1 95-1 25-2 3h-56l-1-1v-196z" fill="#020102"/>
<path transform="translate(650,307)" d="m0 0 16 1 20 4 15 6 12 8 10 9 9 12 7 14 6 20 2 12 1 15-1 14-1 1-7 1-114 1-7 1 3 11 6 12 7 7 12 5 13 1 17-4 10-6 4-6 5-1h51l-1 8-6 14-9 12-8 8-15 9-11 5-13 4-16 2h-20l-15-2-17-5-17-9-11-8-8-8-9-14-7-18-4-22v-27l3-17 5-15 8-15 8-10 7-7 13-9 16-8 15-4z" fill="#030203"/>
<path transform="translate(341,306)" d="m0 0h22l33 1 1 41 11-17 9-10 13-8 16-5h22l16 4 13 7 9 8 9 13 5 11 3 14 1 9v114l-1 15-1 1h-55l-2-1-1-4-1-112-3-12-6-9-7-5-8-2h-14l-9 3-10 9-4 8-2 15-1 68-1 37-1 4-3 1h-33l-20-1-2-5v-178l1-13z" fill="#020102"/>
<path transform="translate(99,308)" d="m0 0h27l19 4 11 4 15 8 12 10 8 11 7 14 4 14 1 11-3 1h-52l-7-16-7-9-8-5-8-2-13 1-10 5-5 4-7 12-4 15-1 6v21l3 17 8 16 7 7 11 4h13l10-4 8-6 6-9 2-11 1-1h56l-1 8-5 21-6 12-8 10-10 9-21 11-13 4-14 2h-18l-17-2-16-5-16-8-13-10-10-12-8-14-6-16-3-16v-33l3-16 8-20 9-14 8-9 12-9 12-7 15-5z" fill="#030102"/>
<path transform="translate(238,306)" d="m0 0h58l1 1v44l-1 148-3 5h-55l-1-1-1-56v-89l1-51z" fill="#020102"/>
<path transform="translate(1604,343)" d="m0 0h27l1 1 1 15 5-4 5-5 9-5 5-1h7l13 4 9 7 7 10 4 12 1 18-2 13-5 12-6 8-9 6-9 3h-13l-11-4-8-6-3-2v50h-29l-1-1v-130z" fill="#030203"/>
<path transform="translate(1804,344)" d="m0 0h16l13 4 10 6 8 9 6 12 2 14-1 14-5 12-7 9-11 8-10 4-16 2-11-2-11-4-6-4-10-10-5-10-2-7v-19l3-11 4-8 8-9 8-5 12-4z" fill="#050405"/>
<path transform="translate(1980,344)" d="m0 0h16l14 4 10 6 6 7 6 12 3 17v4l-3 1-48 1-13 1v6l5 9 6 3 14-1 10-5 16-2h10l1 1-1 7-6 9-9 7-13 5-8 2h-15l-13-4-11-6-10-11-5-12-1-6v-13l3-14 5-10 5-6 10-7 11-4z" fill="#050405"/>
<path transform="translate(1713,314)" d="m0 0h28l1 3v109l-1 12-13 1h-14l-2-1v-123z" fill="#080708"/>
<path transform="translate(1876,343)" d="m0 0h25l2 2v13l5-3 4-5 11-6 7-1 3 1 1 2v17l-2 2-19 3-6 3-3 8-1 12-1 38-1 9-28 1-1-21 1-74z" fill="#040304"/>
<path transform="translate(262,227)" d="m0 0h10l11 4 7 6 6 10 2 6-1 9-6 11-9 7-7 3-5 1h-7l-11-4-8-6-4-5-3-9v-9l3-9 7-8 8-5z" fill="#040304"/>
<path transform="translate(646,353)" d="m0 0h19l10 4 9 8 5 9 1 4v8l-1 1h-68l-2-1v-7l5-10 9-10 9-5z" fill="#FDFDFD"/>
<path transform="translate(1644,366)" d="m0 0h12l6 3 5 8 2 8-1 16-5 10-4 4-3 1h-10l-6-3-6-7-2-7v-17l3-8 6-7z" fill="#FDFDFD"/>
<path transform="translate(1807,366)" d="m0 0h8l7 3 5 6 2 7 1 12-2 10-4 7-5 4-2 1h-11l-8-5-5-10v-20l4-9 6-5z" fill="#FDFDFD"/>
<path transform="translate(510,334)" d="m0 0 4 4 6 13 3 14 1 9v114l-1 15-1 1h-55l-2-1-1-4-1-112-2-12 2 2 2 6 1 9v102l1 8 54 1-3-69v-63l-1-20-7-15z" fill="#373435"/>
<path transform="translate(786,307)" d="m0 0 2 1v148l1 45 8 1 45 1-1-74v-46l2-10 7-10 3-2-2 5-3 8-1 7-1 95-1 25-2 3h-56l-1-1z" fill="#373435"/>
<path transform="translate(238,306)" d="m0 0h38v1h-37l1 39 1 115v41h30l22 1v1h-55l-1-1-1-56v-89l1-51z" fill="#373435"/>
<path transform="translate(52,327)" d="m0 0 2 1-14 14-10 17-6 18-2 22v13l3 22 4 12 8 16 7 13 3 3v2l4 2 10 9 11 6-3 1-13-7-13-11-8-10-8-14-6-16-3-16v-33l3-16 8-20 9-14 8-9z" fill="#373435"/>
<path transform="translate(340,307)" d="m0 0h1l1 58 1 136 34 1 17 1v1h-33l-20-1-2-5v-178z" fill="#373435"/>
<path transform="translate(965,361)" d="m0 0v3l-4 10-1 7-1 96-1 26h-2l-1-64v-66h2l2-5z" fill="#373435"/>
<path transform="translate(999,355)" d="m0 0 5 2 7 9 4 13v125h9v1l-11 1-1-1-1-127-3-12-5-7z" fill="#373435"/>
<path transform="translate(295,306)" d="m0 0 2 1v44l-1 148-2 3v-120l-1-38v-37z" fill="#373435"/>
<path transform="translate(882,353)" d="m0 0 5 1 8 7 4 7 2 10v124h27l28 1v1h-56l-1-2-1-125-2-9-7-10-7-4z" fill="#373435"/>
<path transform="translate(1982,367)" d="m0 0h13l8 4 2 3-1 5-6 1h-25l-3-2 2-5 5-4z" fill="#FDFDFD"/>
<path transform="translate(1602,344)" d="m0 0 2 3 1 11v113l-1 3h5v1h-6l-1-1z" fill="#373435"/>
<path transform="translate(573,351)" d="m0 0 1 2-6 13-4 13-2 23 2 32 4 15 8 17 7 9 4 5 15 11 7 4-2 1-12-7-9-7-7-7-9-14-7-18-4-22v-27l3-17 5-15z" fill="#373435"/>
<path transform="translate(1063,336)" d="m0 0 3 3 4 10 2 8 1 16-1 129h-1l-2-125-2-27-3-10z" fill="#373435"/>
<path transform="translate(410,364)" d="m0 0 2 1-8 9-3 9-1 11-1 68-1 37-1 4-2-1 1-32v-72l1-19 5-8z" fill="#373435"/>
<path transform="translate(725,339)" d="m0 0 5 5 7 12 7 21 3 16 1 15-1 14-5 1 3-1-2-7v-16l-4-15-2-18-6-15-6-10z" fill="#373435"/>
<path transform="translate(1873,349)" d="m0 0h1l1 16 1 44 1 14v14h14v1l-18 1-1-21z" fill="#373435"/>
<path transform="translate(81,375)" d="m0 0 1 3-4 18v21l3 17 8 16 7 7h-3l-7-7-7-12-5-18v-21l5-19z" fill="#373435"/>
<path transform="translate(695,445)" d="m0 0h51l-1 8-6 14-9 12-8 8-2-1 8-8 9-13 4-10 3-9h-49z" fill="#373435"/>
<path transform="translate(195,354)" d="m0 0 2 2 5 17 1 11-3 1h-52l1-2h50v-10l-4-16z" fill="#373435"/>
<path transform="translate(52,327)" d="m0 0 2 1-14 14-10 17-3 8h-2l1-5 7-14 7-9 6-7z" fill="#373435"/>
<path transform="translate(1630,421)" d="m0 0 4 4h-2v47h-1l-1-22z" fill="#373435"/>
<path transform="translate(293,243)" d="m0 0 3 4 2 6-1 9-2 4h-1z" fill="#373435"/>
<path transform="translate(52,327)" d="m0 0 2 1-11 11-1-3z" fill="#201E1F"/>
</svg>
