<svg xml:space="preserve" viewBox="25 25 50 49.75" y="0px" x="0px" version="1.1" xmlns:xlink="http://www.w3.org/1999/xlink" xmlns="http://www.w3.org/2000/svg" style="max-height: 500px" width="50" height="49.75"><path d="M55.995,49.995c3.44,4.44,15.64,20.4,14.98,20.95c-0.64,0.53-13.04-13.46-17.23-18.24c-0.47,0.53-1.04,1.18-1.69,1.91  c4.87,6.4,11.96,15.91,11.45,16.33c-0.5,0.41-8.16-8.01-13.5-14.01c-5.35,6-13.01,14.42-13.51,14.01  c-0.51-0.42,6.58-9.93,11.45-16.33c0.75-0.99,1.44-1.9,2.06-2.7c0.58-0.76,1.08-1.42,1.48-1.92c0.51-0.67,0.83-1.08,0.87-1.13  c0.05-0.06,0.56-0.65,1.38-1.58c4.21-4.79,16.6-18.76,17.24-18.23C71.635,29.605,59.445,45.545,55.995,49.995z M47.645,51.135  c0.04-0.05,0.36-0.46,0.88-1.13c0.39-0.51,0.89-1.16,1.48-1.93c0.61-0.79,1.31-1.7,2.05-2.69c4.87-6.4,11.95-15.91,11.44-16.33  c-0.5-0.41-8.15,8-13.49,14c-5.35-6-13-14.41-13.5-14c-0.51,0.42,6.57,9.92,11.44,16.32c-0.64,0.73-1.21,1.38-1.68,1.91  c-4.21-4.79-16.6-18.76-17.24-18.23c-0.66,0.55,11.53,16.49,14.98,20.94v0.01c-3.45,4.45-15.64,20.39-14.98,20.94  c0.64,0.53,13.02-13.44,17.24-18.23C47.085,51.785,47.595,51.195,47.645,51.135z"/><text font-family="'Helvetica Neue', Helvetica, Arial-Unicode, Arial, Sans-serif" font-weight="bold" font-size="5px" fill="#000000" y="115" x="0">Created by 1art</text><text font-family="'Helvetica Neue', Helvetica, Arial-Unicode, Arial, Sans-serif" font-weight="bold" font-size="5px" fill="#000000" y="120" x="0">from the Noun Project</text></svg>