<?xml version="1.0" encoding="UTF-8"?>
<svg version="1.1" viewBox="0 0 2048 520" width="280" height="72" xmlns="http://www.w3.org/2000/svg">
<path transform="translate(0)" d="m0 0h2048v520h-2048z" fill="transparent"/>
<path transform="translate(684,39)" d="m0 0 16 8 24 16 14 10 18 13 14 10 19 14 21 16 14 10 18 14 12 9 38 29 14 11 5-1 18-14 13-10 21-16 12-9 21-16 19-14 16-12 19-14 18-13 17-12 19-13 19-12 6-3h4l-2 6-15 16-30 30-8 7-9 9-8 7-17 16-8 7-13 12-10 9-12 11-8 7-15 13-13 12-11 9-7 7-8 6 2 4 10 9 4 3v2l6-2 12-9 13-10 19-14 21-16 14-10 15-11 18-13 20-14 21-14 14-8 5-1-1 5-11 12-46 46-8 7-13 12-15 14-10 9-12 11-8 7-11 10-8 7-5 4 1 4 12 11 8 7 10 9 8 7 15 14 8 7 12 11 13 12 16 15 12 12 8 7 8 8 7 8 9 10 1 4-7-1-14-8-22-15-17-12-18-13-38-28-21-16-11-8-21-16-20-15-18-14-30-23-12-11-11-9-13-12-8-7-11-10-8-7-15-13-15-14-8-7-13-12-8-7-15-14-8-7-7-7-8-7-10-10-8-7-28-28-7-9z"/>
<path transform="translate(683,120)" d="m0 0 5 1 16 9 24 16 15 11 36 26 21 16 19 14 12 9 42 32 30 23 18 14 10 9 14 12 12 11 11 9 7 7 8 7 14 12 15 14 8 7 24 22 8 7 16 15 12 11 16 15 17 16 14 15 6 8v3l-6-1-11-6-28-19-17-12-18-13-38-28-42-32-19-14-18-14-26-20-5 1-15 12-12 9-17 13-21 16-36 27-38 28-18 13-17 12-16 11-17 11-11 6h-4l1-4 9-11 33-33 8-7 10-10 8-7 7-7 8-7 14-13 8-7 14-13 8-7 14-12 16-15 11-9 14-13 8-7 3-2 1-3-4-2-11-10-3-2-5 1-17 13-32 24-19 14-16 12-18 13-17 12-20 14-17 11-11 6-5 1 1-4 7-9 10-10 7-8 10-9 17-17 8-7 8-8 8-7 26-24 8-7 13-12 8-7 11-10 6-5-1-4-12-11-8-7-14-13-8-7-24-22-10-9-16-15-12-11-39-39-4-6z"/>
<path transform="translate(1531,206)" d="m0 0h70l14 2 12 4 8 5 5 6 2 7v76l-3 8-5 5-8 5-12 4-11 2h-74l-18-4-14-7-5-5-3-6v-81l6-9 10-6 12-4z"/>
<path transform="translate(1673,206)" d="m0 0h114l15 2 11 4 6 4 4 5 3 9v35l-2 8-7 7-11 5-7 2h-41v2l6 2 23 12 22 12 26 14v1h-47l-24-13-23-13-28-15-2-1-14-1v43h-24z"/>
<path transform="translate(1181,206)" d="m0 0h112l14 2 13 4 8 6 5 7 1 4v38l-3 8-8 7-11 5-13 3-9 1h-85v39h-24z"/>
<path transform="translate(467,206)" d="m0 0h153v24h-129v15h105v24h-105l1 37 128 1v23l-49 1h-103l-1-1z"/>
<path transform="translate(1852,206)" d="m0 0h153v23l-1 1h-128v15h105v24h-105l1 37 128 1v23l-39 1h-75l-39-1z"/>
<path transform="translate(292,205)" d="m0 0h6l11 7 11 9 17 13 18 14 13 10 18 14 13 10 12 9 2 1v-86h24v116l-3 6-5 3-8-1-9-6-14-11-26-20-18-14-13-10-18-14-15-11v86h-24v-117l4-6z"/>
<path transform="translate(79,206)" d="m0 0h110v23l-1 1-108 1-12 3-5 4-1 2v58l4 4 10 3 23 1 90 1v23h-115l-18-4-12-6-6-7-2-5v-80l4-7 7-6 11-5 13-3z"/>
<path transform="translate(1531,230)" d="m0 0h68l11 2 5 3 3 5v56l-2 5-5 3-9 2-19 1h-36l-19-1-10-3-4-4v-62l5-4 5-2z" fill="#FEFEFE"/>
<path transform="translate(1352,206)" d="m0 0h24l1 100 86 1v23l-76 1-35-1z"/>
<path transform="translate(1205,230)" d="m0 0h85l12 2 6 4 2 4v17l-3 5-8 3-11 2h-83z" fill="#FEFEFE"/>
<path transform="translate(1697,230)" d="m0 0h86l12 2 5 3 2 3v18l-3 5-6 2h-96z" fill="#FEFEFE"/>
<path transform="translate(227,206)" d="m0 0h24v124l-4 1-20-1z"/>
</svg>
