<?xml version="1.0" encoding="UTF-8"?>
<svg version="1.1" viewBox="0 0 2048 451" width="1280" height="1280" xmlns="http://www.w3.org/2000/svg">
<path transform="translate(0)" d="m0 0h2048v451h-2048z" fill="#FBFCFC"/>
<path transform="translate(591,13)" d="m0 0h149l13 11 14 11 14 12 10 8 44 36 16 13 14 11 14 12 10 8 22 18 17 14 14 11h7l14-11 13-11 9-7 13-11 14-11 17-14 110-90 10-8 2-2h149l-5 5-16 13-14 11-16 13-14 11-16 13-14 11-16 13-10 8-14 11-16 13-20 16-16 13-14 11-16 13-14 11-11 9-20 16h-2v2l5 2 13 11 14 11 15 12 14 11 16 13 28 22 16 13 9 7 15 12 14 11 20 16 14 11 16 13 9 7 28 22 16 13 3 2v2h-148l-12-9-17-14-14-11-16-13-14-11-11-9-16-13-14-11-16-13-14-11-11-9-16-13-14-11-16-13-3-2h-7l-17 14-16 13-14 11-11 9-18 14-13 11-9 7-10 8-16 13-14 11-16 13-14 11-11 9-14 11-11 8h-148l5-5 14-11 15-12 13-10 18-14 15-12 13-10 10-8 13-10 14-11 36-28 28-22 18-14 14-11 36-28 7-5 1-2-4-2-15-12-14-11-18-14-15-12-13-10-16-13-13-10-28-22-18-14-14-11-15-12-14-11-18-14-15-12-13-10-15-12-11-8z"/>
<path transform="translate(1406,170)" d="m0 0h18l12 3 12 6 10 9 6 7 7 12 5 16 2 11 1 12v13l-2 19-4 15-8 16-8 10-10 8-13 6-16 3-14-1-12-4-10-7-8-9-3-6-1 83h-51v-220h50v28h2l2-6 7-9 7-7 11-6z"/>
<path transform="translate(1655,168)" d="m0 0h14l15 2 15 5 11 6 10 8 8 9 7 12 5 14 3 17v19l-2 14-6 18-8 13-10 11-14 9-12 5-14 3-17 1-18-2-14-4-13-7-11-9-9-11-7-14-4-13-2-13v-20l3-17 6-16 7-11 10-11 10-7 15-7 13-3z"/>
<path transform="translate(365,170)" d="m0 0h18l15 4 11 7 8 8 6 10 4 10 2 10 1 113 7 2v23l-4 7-5 3-7 1-8-4-8-9-4-6 1-4 5-1 4 2-1-14h-31l-1-1-1-96-3-11-6-7-6-3-5-1h-8l-9 3-6 4-5 10-1 3-1 98-51 1v-160h48l1 28 1 1 6-11 8-9 11-7z" fill="#17151A"/>
<path transform="translate(1944,170)" d="m0 0h23l15 3 13 5 11 7 11 11 8 13 5 13 3 16v25h-105l2 13 5 10 8 7 9 3h15l11-4 4-2 2-4 3-5h45l1 2-6 16-6 9-6 7-10 7-12 6-14 4-20 2-16-1-14-3-15-6-11-8-10-10-8-14-4-10-3-14-1-10v-14l3-18 5-14 7-12 11-12 11-8 13-6 11-3z"/>
<path transform="translate(523,170)" d="m0 0h23l18 4 16 8 9 7 8 9 7 12 5 14 2 11 1 16v11l-1 1h-105l3 15 5 9 6 5 10 4h16l10-4 6-5 4-6h45l-2 10-7 14-11 12-11 7-11 5-18 4h-29l-18-4-16-8-10-8-8-9-8-15-4-13-2-12v-24l3-16 6-15 8-12 6-7 12-9 14-7z" fill="#17151A"/>
<path transform="translate(81,170)" d="m0 0h23l15 3 13 5 11 7 9 8 9 14 4 13 1 14h-47l-4-13-8-9-7-3h-14l-8 4-5 5-4 7-3 8-1 6v25l3 12 5 9 5 5 9 4h13l10-5 6-9 3-11h47l-1 14-4 13-7 12-10 10-11 7-12 5-14 3h-29l-17-4-16-8-11-9-9-11-7-14-4-13-2-14v-16l2-14 5-16 8-14 9-10 8-7 15-8 15-4z" fill="#17151A"/>
<path transform="translate(1505,119)" d="m0 0h52v212l-1 1h-51z" fill="#010101"/>
<path transform="translate(1849,170)" d="m0 0h15l7 2v42l-2 1-13-2h-9l-8 2-8 5h-2l-2 4-4 7-2 6-1 94-1 1h-50l-1-1v-159h51v22l1 5 8-16 9-8 8-4z" fill="#000001"/>
<path transform="translate(192,172)" d="m0 0h52v159l-51 1z" fill="#17151A"/>
<path transform="translate(1659,206)" d="m0 0h7l9 3 7 6 5 9 3 9 1 5v26l-3 12-6 11-7 6-9 3-11-1-8-4-7-9-4-9-2-9v-26l3-12 6-11 7-6z" fill="#FBFCFC"/>
<path transform="translate(1394,210)" d="m0 0 13 1 8 5 6 7 5 13 1 6v21l-3 13-5 9-7 7-8 3h-12l-8-3-8-8-5-11-2-9v-23l3-12 6-10 7-6z" fill="#FBFCFC"/>
<path transform="translate(214,105)" d="m0 0h8l11 4 7 7 3 6 1 4v7l-4 10-8 7-7 3h-14l-10-5-6-7-2-5v-13l4-8 8-7z" fill="#17151A"/>
<path transform="translate(531,206)" d="m0 0h10l10 3 8 6 5 8 1 9-1 1h-57l-1-3 4-10 7-8 9-5z" fill="#FBFCFC"/>
<path transform="translate(1954,206)" d="m0 0h8l8 2 8 5 6 7 3 9v3h-59l2-9 6-9 7-5 5-2z" fill="#FBFCFC"/>
<path transform="translate(413,322)" d="m0 0h4l1 19 1-9h5l12 4v17l-2 7-6 5-2 1h-7l-6-4-10-13v-3h5l5 3z" fill="#FBFCFC"/>
<path transform="translate(192,172)" d="m0 0 40 1v1l-34 1-4 1 1 147 1 4 3 2 39 1v-2h2l1-100 1-29h1v132l-50 1z"/>
<path transform="translate(276,173)" d="m0 0h35v1l-30 1-4 1 1 130 1 20 4 3 39 1 1-3 2-74h1v78l-50 1z"/>
<path transform="translate(119,269)" d="m0 0h47v7l-2 3v-2h-2l-4-4-13-1h-19l-5 3h-2z" fill="#080709"/>
<path transform="translate(436,336)" d="m0 0h1v21l-4 7-5 3-7 1-8-4-8-9-4-6 1-3 3 4 8 10v2l6 3h7l6-4 2-3 1-5z" fill="#141317"/>
<path transform="translate(566,281)" d="m0 0 44 1v1h-43v2h-2z" fill="#010101"/>
<path transform="translate(119,269)" d="m0 0 26 1v1l-19 1-5 3h-2z" fill="#000001"/>
<path transform="translate(436,336)" d="m0 0h1v21l-4 7h-2l2-4 2-7z" fill="#09080A"/>
</svg>
